<?xml version="1.0" encoding="utf-8"?>
<!-- Generator: Adobe Illustrator 26.0.0, SVG Export Plug-In . SVG Version: 6.00 Build 0)  -->
<svg version="1.1" xmlns="http://www.w3.org/2000/svg" xmlns:xlink="http://www.w3.org/1999/xlink" x="0px" y="0px"
	 viewBox="0 0 802.3 845.06" style="enable-background:new 0 0 802.3 845.06;" xml:space="preserve">
<style type="text/css">
	.st0{fill:none;}
	.st1{fill:#FFFFFF;}
</style>
<g id="Capa_2">
	<path d="M613.51,326.2c-0.04-6.43-2.34-11.7-2.34-11.7c-1.53-4.72-7.45-6.77-7.45-6.77c-2.04-0.98-14.98-1.02-14.98-1.02
		c-11.19,0.94-15.74-7.91-15.74-7.91c-2.72-2.51-13.11-32-13.11-32c-0.89-2.68-0.17-6.64-0.17-6.64c0.77-3.79,4.72-8.72,4.72-8.72
		s8.13-9.02,9.4-10.17s1.83-4.3,1.83-4.3s0.13-5.28,0-6.72c-0.13-1.45-1.19-2.3-1.19-2.3l-8.68-9.53c0,0-25.19-25.57-29.06-28.77
		c-3.87-3.19-11.19-0.6-12.51-0.43c-1.32,0.17-9.7,8.51-9.7,8.51s-6.98,8.94-16.04,6.98c-9.06-1.96-33.49-12.81-36.89-16.13
		s-3.87-9.91-3.87-9.91c-0.6-1.83-0.89-11.4-0.85-13.28c0.04-1.87-0.81-4.38-0.81-4.38c-1.87-4.85-5.02-8.17-13.06-9.53
		s-26.09-1.28-26.55-1.49s-9.91,0.77-11.06,0.81s-4.09,0.21-10.51,1.49c-6.43,1.28-9.19,7.19-9.96,8.68
		c-0.77,1.49-1.45,8.64-1.45,8.64v10.64c-1.96,9.62-6.38,9.62-7.66,11.45c-1.28,1.83-20.34,8.6-25.06,11.02s-9.53,3.02-14.26,2.3
		c-4.72-0.72-7.45-4.6-8.3-4.94c-0.85-0.34-6.34-6-6.34-6c-0.3,0-1.96-1.4-2.3-2c-0.34-0.6-3.57-2.04-3.57-2.04
		c-1.57-1.4-5.23-1.19-7.11-1.15c-1.87,0.04-7.4,4.38-7.4,4.38s-32.3,33.74-33.45,34.21s-2.04,3.96-2.04,3.96s-0.04,6.17,0,7.49
		c0.03,1.01,0.55,2.08,1.18,3.06c0.46,0.71,0.98,1.38,1.41,1.94c2.45,3.15,5.87,5.44,8.3,8.54c1.36,1.73,2.65,3.51,3.89,5.32
		c2.36,2.94,1.28,9.96-0.13,14.36c-1.4,4.4-8.17,21-8.17,21c-1.72,5.74-6.89,11.74-11.94,13.79c-5.04,2.04-13.28,1.09-18.83,1.85
		c-5.55,0.77-6.51,1.98-9.45,4.98c-2.94,3-3.45,16.02-3.45,16.02c-1.15,1.72,0.45,34.98,1.34,39.38s4.98,9.38,7.98,10.47
		s14.49,1.34,14.49,1.34c6.96-0.7,11.68,2.68,11.68,2.68c5.43,2.36,7.6,8.87,7.6,8.87c1.91,1.53,11.49,28.85,11.49,28.85
		c0.96,7.66-2.43,10.66-3.45,12.45c-1.02,1.79-8.87,9.96-10.34,11.55c-1.47,1.6-2.36,3.57-2.11,9.7c0.26,6.13,3.83,7.28,5.3,9.38
		s12.45,11.94,13.34,13.34c0.89,1.4,21.7,20.04,21.7,20.04c7.98,2.94,10.28-0.45,13.21-1.66c2.94-1.21,10.15-9.89,13.85-12.06
		c3.7-2.17,7.02-2.04,9.64-2.04s16.72,5.74,16.72,5.74c2.36,0.32,17.3,8.04,18.64,8.74c1.34,0.7,6.26,6.64,5.55,10.91
		c-0.7,4.28,0.7,15.45,1.09,18.19s4.47,6.32,4.47,6.32c4.34,5.11,34.3,4.18,37.02,4.18s11.7-1.03,20.51-2.6
		c8.81-1.57,9.96-13.23,9.96-13.23c-0.26-2.21,0.68-14.17,0.68-14.17c1.11-8.26,5.87-10.38,5.87-10.38c6-4.64,22.6-10.3,27.19-12.47
		c4.6-2.17,6.09-1.66,8.94-2.09s10.64,3.36,10.94,4.55c0.3,1.19,10.81,9.66,10.81,9.66c2.04,2.04,6.38,2.68,9.53,2.38
		c3.15-0.3,6.38-3.28,6.38-3.28l31.02-30.94c0,0,4.64-4.43,5.45-6.3c0.81-1.87,1.96-3.19,1.28-6.68s-2.72-6.3-3.19-7.06
		c-0.47-0.77-6.94-7.79-7.62-8.34c-0.68-0.55-4.6-5.45-5.53-8.34s-0.21-5.7-0.21-5.7c-0.13-3.62,3.49-12,3.49-12l1.96-4.55
		c0,0,6.68-15.79,7.83-17.87c1.15-2.09,2.77-2.77,2.77-2.77c2.34-2.81,9.15-4.3,9.15-4.3s8.13-0.47,9.7-0.38s8.47-1.23,8.47-1.23
		s4.55-0.38,6.98-5.11c2.43-4.72,3.11-13.11,3.11-13.11C614.37,348.67,613.56,332.63,613.51,326.2z M421.15,444.27
		c-55.88,0-101.17-45.3-101.17-101.17s45.3-101.17,101.17-101.17s101.17,45.3,101.17,101.17S477.03,444.27,421.15,444.27z"/>
</g>
<g id="Capa_4">
	<g>
		<rect x="94.93" y="315.21" class="st0" width="757.79" height="79.44"/>
		<path class="st1" d="M140.81,315.2v9.58h-30.62v7.69h29.1v9.33h-29.1v14.09H97.8V315.2H140.81z"/>
		<path class="st1" d="M179.78,328.93c2.93,2.13,3.72,4.76,3.72,12.02c0,7.93-0.73,10.62-3.35,12.81
			c-2.75,2.26-6.34,2.87-17.02,2.87c-10.8,0-14.4-0.61-17.14-2.87c-2.68-2.2-3.36-4.88-3.36-13.24c0-6.77,0.85-9.52,3.72-11.59
			c2.68-1.95,6.89-2.62,16.71-2.62C172.95,326.31,177.1,326.98,179.78,328.93z M153.43,341.68c0,3.84,0.49,5.12,2.44,5.92
			c1.34,0.61,3.78,0.92,7.26,0.92c8.17,0,9.58-1.04,9.58-7.14c0-3.9-0.61-5.31-2.62-6.1c-1.34-0.55-3.9-0.85-6.95-0.85
			C154.89,334.42,153.43,335.52,153.43,341.68z"/>
		<path class="st1" d="M197.72,327.04v4.33h0.55c2.01-3.66,5.06-5.06,11.1-5.06c8.72,0,11.65,2.93,11.65,11.59v1.95h-10.19
			c0-4.27-1.22-5.43-5.67-5.43c-2.44,0-4.45,0.73-5.49,2.07c-1.04,1.4-1.34,2.99-1.34,7.44v11.96h-10.8v-28.86H197.72z"/>
		<path class="st1" d="M234.25,327.04v4.33h0.55c1.59-3.48,5.25-5.06,11.65-5.06c6.95,0,10.8,1.77,13.12,6.04
			c1.83-4.33,5.37-6.04,12.44-6.04c5.98,0,9.52,1.1,12.02,3.72c2.5,2.56,3.05,4.94,3.05,12.38v13.48h-10.8v-13.48
			c-0.06-4.82-0.18-5.37-1.22-6.41c-1.1-1.1-2.93-1.59-6.1-1.59c-3.23,0-5.25,0.55-6.41,1.83c-1.22,1.34-1.59,3.05-1.59,7.75v11.9
			h-10.8v-13.48c0-4.51-0.12-5.31-1.16-6.41c-0.98-1.1-2.87-1.59-5.98-1.59c-3.23,0-5.37,0.55-6.59,1.77
			c-1.22,1.22-1.59,3.05-1.59,7.81v11.9h-10.8v-28.86H234.25z"/>
		<path class="st1" d="M320.45,355.89v-4.33h-0.55c-1.65,3.66-5.06,5.06-12.32,5.06c-6.71,0-10.25-1.04-12.87-3.66
			c-2.62-2.68-3.17-4.88-3.17-12.75v-13.18h10.8v13.18c0,4.21,0.3,5.55,1.46,6.65c1.28,1.22,2.93,1.59,7.02,1.59
			c3.84,0,5.8-0.43,7.14-1.59c1.52-1.34,1.89-2.87,1.89-8.24v-11.59h10.8v28.86H320.45z"/>
		<path class="st1" d="M346.25,315.2v40.69h-10.8V315.2H346.25z"/>
		<path class="st1" d="M351.37,336.07c0.31-4.21,1.71-6.47,5.06-8.11c2.5-1.16,7.5-1.71,16.17-1.71c9.46,0,11.65,0.43,14.09,2.87
			c1.83,1.95,2.44,4.15,2.44,9.39v17.39h-10.37v-3.96h-0.43c-0.92,1.89-2.07,2.93-4.03,3.72c-1.77,0.73-4.51,0.98-11.53,0.98
			c-9.58,0-12.57-2.14-12.57-8.97c0-5.19,1.95-8.05,6.16-9.15c2.62-0.73,5.43-0.92,13.36-0.92c5,0,6.47,0.43,8.17,2.26h0.49v-1.53
			c0-4.51-0.85-5.12-7.38-5.12c-7.75,0-8.54,0.24-8.85,2.87H351.37z M361.01,346.74c0,2.32,1.65,2.99,7.44,2.99
			c7.63,0,9.76-0.73,9.76-3.29c0-1.16-0.67-2.01-1.89-2.44c-0.67-0.24-2.38-0.31-6.95-0.31
			C362.78,343.69,361.01,344.36,361.01,346.74z"/>
		<path class="st1" d="M422.5,315.2v14.58h28V315.2h12.99v40.69H450.5v-14.7h-28v14.7H409.5V315.2H422.5z"/>
		<path class="st1" d="M479.59,315.2v8.11h-10.8v-8.11H479.59z M479.59,327.04v28.86h-10.8v-28.86H479.59z"/>
		<path class="st1" d="M494.54,346.68c0.18,2.5,2.26,3.23,9.03,3.23c7.02,0,9.03-0.61,9.03-2.68c0-1.16-0.92-1.95-2.5-2.13
			c-1.46-0.12-4.15-0.18-14.76-0.18c-8.17-0.12-11.59-2.68-11.59-8.85c0-4.45,1.59-7.14,5-8.42c2.32-0.92,7.38-1.34,14.95-1.34
			c9.82,0,13.42,0.61,15.86,2.68c1.53,1.22,2.07,2.75,2.32,6.22h-10.98c-0.24-0.92-0.37-1.1-0.73-1.34
			c-0.92-0.61-3.11-0.85-6.77-0.85c-6.77,0-8.85,0.55-8.85,2.38c0,1.16,0.85,1.77,2.56,1.89c1.77,0.12,3.66,0.18,14.76,0.24
			c8.36,0.06,11.53,2.5,11.53,8.97c0,8.24-3.9,10.13-20.62,10.13c-10.49,0-14.09-0.61-16.65-2.99c-1.77-1.59-2.5-3.6-2.56-6.96
			H494.54z"/>
		<path class="st1" d="M541.45,320.39v6.65h17.08v7.75h-17.08v8.42c0,3.17,0.06,3.6,0.55,4.33c0.55,0.98,1.65,1.4,3.72,1.4
			c2.2,0,3.42-0.43,3.9-1.46c0.37-0.67,0.43-0.92,0.43-3.9h9.88c-0.12,5.49-0.55,7.26-2.2,9.39c-2.2,2.75-5.49,3.66-12.93,3.66
			c-6.89,0-9.7-0.61-11.83-2.68c-1.53-1.53-2.14-3.11-2.26-6.41c-0.06-0.49-0.06-1.95-0.06-4.33v-8.42h-5.67v-7.75h5.67v-6.65
			H541.45z"/>
		<path class="st1" d="M599.64,328.93c2.93,2.13,3.72,4.76,3.72,12.02c0,7.93-0.73,10.62-3.36,12.81
			c-2.75,2.26-6.34,2.87-17.02,2.87c-10.8,0-14.4-0.61-17.14-2.87c-2.68-2.2-3.36-4.88-3.36-13.24c0-6.77,0.85-9.52,3.72-11.59
			c2.68-1.95,6.89-2.62,16.71-2.62C592.81,326.31,596.96,326.98,599.64,328.93z M573.29,341.68c0,3.84,0.49,5.12,2.44,5.92
			c1.34,0.61,3.78,0.92,7.26,0.92c8.17,0,9.58-1.04,9.58-7.14c0-3.9-0.61-5.31-2.62-6.1c-1.34-0.55-3.9-0.85-6.96-0.85
			C574.75,334.42,573.29,335.52,573.29,341.68z"/>
		<path class="st1" d="M617.57,327.04v4.33h0.55c2.01-3.66,5.06-5.06,11.1-5.06c8.72,0,11.65,2.93,11.65,11.59v1.95h-10.19
			c0-4.27-1.22-5.43-5.67-5.43c-2.44,0-4.45,0.73-5.49,2.07c-1.04,1.4-1.34,2.99-1.34,7.44v11.96h-10.8v-28.86H617.57z"/>
		<path class="st1" d="M654.72,315.2v8.11h-10.8v-8.11H654.72z M654.72,327.04v28.86h-10.8v-28.86H654.72z"/>
		<path class="st1" d="M698.27,344.3c-0.18,4.82-0.79,6.89-2.68,8.78c-2.75,2.81-6.28,3.54-17.63,3.54
			c-8.85,0-12.57-0.61-15.43-2.68c-2.81-1.95-3.72-5.06-3.72-12.69c0-6.95,0.85-10,3.42-12.08c2.75-2.26,6.53-2.93,16.29-2.93
			c9.58,0,13.79,0.73,16.53,2.99c2.32,1.83,3.11,4.09,3.29,9.52h-10.98c-0.37-3.29-2.5-4.39-8.85-4.39c-7.5,0-8.91,1.16-8.91,7.2
			c0,3.78,0.61,5.25,2.56,6.04c1.28,0.55,3.6,0.85,6.47,0.85c6.34,0,8.17-0.85,8.66-4.15H698.27z"/>
		<path class="st1" d="M702.48,336.07c0.3-4.21,1.71-6.47,5.06-8.11c2.5-1.16,7.5-1.71,16.17-1.71c9.46,0,11.65,0.43,14.09,2.87
			c1.83,1.95,2.44,4.15,2.44,9.39v17.39h-10.37v-3.96h-0.43c-0.92,1.89-2.07,2.93-4.03,3.72c-1.77,0.73-4.51,0.98-11.53,0.98
			c-9.58,0-12.57-2.14-12.57-8.97c0-5.19,1.95-8.05,6.16-9.15c2.62-0.73,5.43-0.92,13.36-0.92c5,0,6.47,0.43,8.17,2.26h0.49v-1.53
			c0-4.51-0.85-5.12-7.38-5.12c-7.75,0-8.54,0.24-8.85,2.87H702.48z M712.12,346.74c0,2.32,1.65,2.99,7.44,2.99
			c7.62,0,9.76-0.73,9.76-3.29c0-1.16-0.67-2.01-1.89-2.44c-0.67-0.24-2.38-0.31-6.95-0.31
			C713.89,343.69,712.12,344.36,712.12,346.74z"/>
	</g>
	<g>
	</g>
	<g>
	</g>
	<g>
	</g>
	<g>
	</g>
	<g>
	</g>
	<g>
	</g>
</g>
</svg>
